<mxfile host="app.diagrams.net" modified="2023-06-09T06:28:03.492Z" agent="Mozilla/5.0 (Macintosh; Intel Mac OS X 10_15_7) AppleWebKit/537.36 (KHTML, like Gecko) Chrome/114.0.0.0 Safari/537.36" version="21.3.2" etag="DHykQgmTLHQDxWzJnmVT" type="github">
  <diagram name="ページ1" id="KROOuwgz_6Kc7LgWX0lt">
    <mxGraphModel>
      <root>
        <mxCell id="0" />
        <mxCell id="1" parent="0" />
      </root>
    </mxGraphModel>
  </diagram>
</mxfile>
